<svg viewBox="0 0 250 250" fill="none" xmlns="http://www.w3.org/2000/svg">
	<g clip-path="url(#clip0_42_59)">
		<path
			d="M21.7316 87.1712C17.8954 65.4154 32.4222 44.6691 54.178 40.833L162.507 21.7317C184.263 17.8955 205.009 32.4223 208.845 54.178L227.946 162.507C231.782 184.263 217.256 205.009 195.5 208.845L87.1711 227.946C65.4153 231.783 44.669 217.256 40.8329 195.5L21.7316 87.1712Z"
			fill="#0E5E59" />
		<path
			d="M83.9017 28.4937C99.1649 8.91398 128.273 7.95562 145.705 25.6325C169.882 50.1501 190.875 68.2322 215.404 85.4578C236.736 100.439 240.836 131.075 222.457 149.56L193.793 178.39C192.204 179.988 190.753 181.717 189.455 183.559L162.69 221.561C148.818 241.257 120.811 244.312 103.019 228.07L64.5982 192.996L25.3736 162.912C6.84881 148.704 4.37791 121.717 20.0146 104.381L54.855 65.755L83.9017 28.4937Z"
			fill="#368F8A" />
		<path
			d="M175 125C175 152.614 152.614 165 125 165C97.3858 165 75 152.614 75 125C75 97.3858 97.3858 75 125 75C152.614 75 175 97.3858 175 125Z"
			fill="#122E2C" />
		<path
			d="M135.5 117C137.083 135.097 132.217 145.198 125.89 145.751C119.563 146.305 123.473 140.597 121.89 122.5C120.306 104.403 115.563 92.8047 121.89 92.2511C128.217 91.6976 133.917 98.903 135.5 117Z"
			fill="#B7DFDD" />
	</g>
	<defs>
		<clipPath id="clip0_42_59">
			<rect width="250" height="250" fill="white" />
		</clipPath>
	</defs>
</svg>