<svg viewBox="0 0 360 360" fill="none" xmlns="http://www.w3.org/2000/svg">
    <rect width="360" height="360" fill="white" />
    <g clip-path="url(#clip0_42_38)">
        <path
            d="M76.7316 142.171C72.8954 120.415 87.4222 99.6691 109.178 95.833L217.507 76.7317C239.263 72.8955 260.009 87.4223 263.845 109.178L282.946 217.507C286.782 239.263 272.256 260.009 250.5 263.845L142.171 282.946C120.415 286.783 99.669 272.256 95.8329 250.5L76.7316 142.171Z"
            fill="#0E5E59" />
        <path
            d="M138.902 83.4937C154.165 63.914 183.273 62.9556 200.705 80.6325C224.882 105.15 245.875 123.232 270.404 140.458C291.736 155.439 295.836 186.075 277.457 204.56L248.793 233.39C247.204 234.988 245.753 236.717 244.455 238.559L217.69 276.561C203.818 296.257 175.811 299.312 158.019 283.07L119.598 247.996L80.3736 217.912C61.8488 203.704 59.3779 176.717 75.0146 159.381L109.855 120.755L138.902 83.4937Z"
            fill="#368F8A" />
        <path
            d="M230 180C230 207.614 207.614 220 180 220C152.386 220 130 207.614 130 180C130 152.386 152.386 130 180 130C207.614 130 230 152.386 230 180Z"
            fill="#122E2C" />
        <path
            d="M190.5 172C192.083 190.097 187.217 200.198 180.89 200.751C174.563 201.305 178.473 195.597 176.89 177.5C175.306 159.403 170.563 147.805 176.89 147.251C183.217 146.698 188.917 153.903 190.5 172Z"
            fill="#B7DFDD" />
    </g>
    <defs>
        <clipPath id="clip0_42_38">
            <rect width="250" height="250" fill="white" transform="translate(55 55)" />
        </clipPath>
    </defs>
</svg>