<svg viewBox="0 0 360 360" fill="none" xmlns="http://www.w3.org/2000/svg">
    <rect width="360" height="360" fill="white" />
    <path
        d="M71.8517 102.508C73.0009 94.6247 78.7197 88.175 86.4092 86.0903L177.248 61.4626C180.777 60.5059 184.501 60.5348 188.015 61.5463L272.95 85.9977C280.421 88.1486 285.969 94.4346 287.175 102.115L299.518 180.738C299.837 182.774 299.841 184.846 299.527 186.882L287.337 266.103C286.054 274.441 279.677 281.077 271.398 282.691L186.36 299.275C183.904 299.754 181.38 299.768 178.919 299.316L87.8955 282.599C79.4416 281.046 72.9251 274.266 71.7093 265.757L60.4083 186.667C60.1375 184.772 60.1402 182.848 60.4164 180.953L71.8517 102.508Z"
        fill="#608CCF" />
</svg>