<svg viewBox="0 0 250 250" fill="none" xmlns="http://www.w3.org/2000/svg">
	<path d="M16.8517 47.5084C18.0009 39.6247 23.7197 33.175 31.4092 31.0903L122.248 6.46261C125.777 5.50587 129.501 5.53483 133.015 6.54634L217.95 30.9977C225.421 33.1486 230.969 39.4346 232.175 47.1154L244.518 125.738C244.837 127.774 244.841 129.846 244.527 131.882L232.337 211.103C231.054 219.441 224.677 226.077 216.398 227.691L131.36 244.275C128.904 244.754 126.38 244.768 123.919 244.316L32.8955 227.599C24.4416 226.046 17.9251 219.266 16.7093 210.757L5.40832 131.667C5.13751 129.772 5.14023 127.848 5.4164 125.953L16.8517 47.5084Z" fill="#608CCF" />
</svg>